HIERARCHY
ROOT Hips
{
  OFFSET 0 0 0
  CHANNELS 6 Xposition Yposition Zposition Zrotation Xrotation Yrotation
  JOINT Spine
  {
    OFFSET 0.00000000 0.00000000 0.00000000
    CHANNELS 3 Zrotation Xrotation Yrotation
    JOINT Spine1
    {
      OFFSET 0.19000000 0.00000000 0.00000000
      CHANNELS 3 Zrotation Xrotation Yrotation
      JOINT Neck
      {
        OFFSET 0.22500000 0.00600000 0.00000000
        CHANNELS 3 Zrotation Xrotation Yrotation
        JOINT Head
        {
          OFFSET 0.14000000 0.00030878 0.00000000
          CHANNELS 3 Zrotation Xrotation Yrotation
          End Site
          {
            OFFSET 0.17000000 0.00000000 0.00000000
          }
        }
      }
      JOINT LeftShoulder
      {
        OFFSET 0.19800000 0.03700000 0.04300000
        CHANNELS 3 Zrotation Xrotation Yrotation
        JOINT LeftArm
        {
          OFFSET 0.08000000 0.00000000 0.00000000
          CHANNELS 3 Zrotation Xrotation Yrotation
          JOINT LeftForeArm
          {
            OFFSET 0.15200000 0.00000000 0.00000000
            CHANNELS 3 Zrotation Xrotation Yrotation
            JOINT LeftHand
            {
              OFFSET 0.17800000 0.00000000 0.00000000
              CHANNELS 3 Zrotation Xrotation Yrotation
              End Site
              {
                OFFSET 0.07200000 0.00000000 0.00000000
              }
            }
          }
        }
      }
      JOINT RightShoulder
      {
        OFFSET 0.19800000 0.03700000 -0.04300000
        CHANNELS 3 Zrotation Xrotation Yrotation
        JOINT RightArm
        {
          OFFSET 0.08000000 0.00000000 0.00151654
          CHANNELS 3 Zrotation Xrotation Yrotation
          JOINT RightForeArm
          {
            OFFSET 0.15200000 0.00000000 0.00000000
            CHANNELS 3 Zrotation Xrotation Yrotation
            JOINT RightHand
            {
              OFFSET 0.17800000 0.00000000 0.00000000
              CHANNELS 3 Zrotation Xrotation Yrotation
              End Site
              {
                OFFSET 0.07200000 0.00000000 0.00000000
              }
            }
          }
        }
      }
    }
  }
  JOINT LeftUpLeg
  {
    OFFSET 0.05984250 -0.07666000 0.04788790
    CHANNELS 3 Zrotation Xrotation Yrotation
    JOINT LeftLeg
    {
      OFFSET 0.16000000 0.00000000 0.00000000
      CHANNELS 3 Zrotation Xrotation Yrotation
      JOINT LeftFoot
      {
        OFFSET 0.18000000 0.00000000 0.00000000
        CHANNELS 3 Zrotation Xrotation Yrotation
        End Site
        {
          OFFSET 0.00000000 -0.10800000 0.00000000
        }
      }
    }
  }
  JOINT RightUpLeg
  {
    OFFSET 0.05984250 -0.07665980 -0.04788790
    CHANNELS 3 Zrotation Xrotation Yrotation
    JOINT RightLeg
    {
      OFFSET 0.16000000 0.00000000 0.00000000
      CHANNELS 3 Zrotation Xrotation Yrotation
      JOINT RightFoot
      {
        OFFSET 0.18000000 0.00000000 0.00000000
        CHANNELS 3 Zrotation Xrotation Yrotation
        End Site
        {
          OFFSET 0.00000000 -0.10800000 0.00000000
        }
      }
    }
  }
  JOINT Tail
  {
    OFFSET 0.06836960 -0.00722574 0.00000000
    CHANNELS 3 Zrotation Xrotation Yrotation
    JOINT Tail1
    {
      OFFSET 0.12000000 0.00000000 0.00000000
      CHANNELS 3 Zrotation Xrotation Yrotation
      End Site
      {
        OFFSET 0.12000000 0.00000000 0.00000000
      }
    }
  }
}
MOTION
Frames:	8
Frame Time:	0.0166667
-5.6770643 0.0981149 -4.2775292 -97.3972 27.7722 1.74286 -123.267 -4.86655 -10.7178 -9.53329 -0.517859 7.96583 -13.2646 -5.03489 1.41675 -75.7126 83.4415 105.644 -110.208 -34.7351 -141.355 94.4824 -69.3985 -146.843 -72.4583 8.94426 -0.827854 3.74624 0.667358 -14.4259 97.7996 2.94204 33.7995 73.5789 -48.3494 38.8359 -93.1941 -0.783813 -10.9532 17.1785 0.830073 -4.2006 -143.855 33.8599 -9.0916 161.336 29.3094 -2.19385 -4.3513 1.5135 14.8067 -120.955 -57.9822 7.95358 157.108 -34.9807 -5.94527 -29.7533 -3.96081 -19.7765 58.8212 -17.3172 -30.7163 16.8339 34.1773 -6.71309 
-5.6778381 0.0981208 -4.2765987 -97.2974 28.1758 1.89675 -123.355 -4.86106 -11.0395 -9.59872 -0.466547 8.46929 -13.3003 -4.81479 1.1727 -73.9279 83.8674 104.916 -110.112 -34.708 -141.149 94.7112 -69.8027 -146.997 -72.5503 8.91003 -0.728594 4.04645 0.638081 -14.3859 97.8306 2.97618 33.762 73.5761 -48.4295 38.9837 -93.3837 -0.542388 -10.944 17.4969 0.805752 -4.00797 -143.412 33.9476 -9.32948 161.443 28.8869 -2.19429 -5.58234 1.30492 14.8647 -121.636 -58.0866 7.685 157.026 -35.3463 -5.99282 -29.2071 -4.03695 -19.7759 59.0022 -17.7168 -30.1457 16.8887 33.997 -6.90957 
-5.6788768 0.0980588 -4.2756561 -97.2581 28.5510 1.98832 -123.413 -4.80213 -11.1129 -9.63531 -0.395403 8.56581 -13.2849 -4.76427 0.79061 -72.7923 83.7688 105.457 -110.065 -34.7184 -141.002 95.0562 -70.4293 -147.419 -72.6339 8.75009 -0.375152 4.26974 0.577995 -14.1081 97.8824 3.0428 33.7504 73.4768 -48.2748 38.4552 -93.5478 -0.399655 -10.8811 17.7318 0.783667 -3.75095 -144.142 35.0154 -8.42166 161.803 30.0016 -2.18466 -5.10546 1.68084 15.9987 -121.587 -58.3844 7.77498 156.788 -35.8756 -6.09182 -29.0824 -4.03585 -19.7351 59.1581 -18.0931 -29.4978 17.0628 33.8908 -7.23858 
-5.6796082 0.0974438 -4.2747338 -97.5464 28.9105 2.31903 -123.268 -4.67018 -11.1354 -9.58945 -0.223611 8.55724 -13.1311 -4.63804 0.709054 -69.7165 84.1809 103.959 -110.136 -34.7836 -141.058 94.3359 -70.5487 -148.102 -72.7938 9.38215 -0.315014 3.9865 0.472869 -13.0076 97.8514 3.04309 33.9737 72.7549 -47.8093 36.3288 -93.6289 -0.525941 -10.76 17.9571 0.718931 -4.0975 -143.803 35.5583 -8.48056 162.026 30.021 -2.18208 -5.48822 1.70843 16.4568 -121.71 -58.5984 7.57014 156.723 -36.4233 -6.17174 -28.7616 -4.07247 -19.7622 59.9931 -18.3848 -28.7008 16.9755 33.438 -7.40234 
-5.6801799 0.0972914 -4.2740221 -97.5514 29.0382 2.42566 -123.312 -4.63512 -11.0522 -9.50851 -0.223352 8.49192 -12.8255 -4.47027 0.716301 -67.3308 84.5315 103.004 -110.261 -34.867 -141.223 93.3067 -70.4668 -148.893 -72.9943 9.84763 -0.349254 3.94347 0.360533 -11.9924 97.8398 3.058 34.1365 72.0639 -47.3446 34.2373 -93.6336 -0.790888 -10.64 18.0021 0.664731 -4.45644 -143.718 35.2863 -8.65563 162.096 29.9354 -2.21588 -5.92627 1.66016 16.6608 -122.338 -58.9793 6.89126 156.666 -36.2823 -6.18846 -28.4899 -4.12627 -19.8196 60.3209 -18.4824 -28.3473 16.955 33.1645 -7.48742 
-5.6808490 0.0971954 -4.2735897 -97.4482 29.1226 2.45884 -123.428 -4.68571 -11.1568 -9.5201 -0.31142 8.79319 -12.29 -4.17861 0.536297 -65.7373 84.9026 102.84 -110.227 -34.8315 -141.206 92.6605 -70.5337 -149.413 -73.1796 9.99784 -0.419593 4.3333 0.26517 -11.3857 97.8608 3.08205 34.1147 71.9011 -47.054 33.4172 -93.6814 -0.821376 -10.5609 18.0539 0.628732 -4.33788 -143.787 35.4724 -8.26291 162.329 30.4823 -2.22694 -6.62934 1.6872 17.2808 -122.647 -59.6356 6.79345 156.61 -36.9573 -6.29782 -28.2808 -4.16302 -20.0541 60.4755 -18.5262 -28.1488 16.9231 32.9487 -7.48504 
-5.6813935 0.0969336 -4.2731261 -97.4172 29.3030 2.50398 -123.491 -4.68678 -11.2233 -9.56427 -0.318158 8.9236 -11.7254 -3.83895 0.296842 -64.4408 85.2696 103.253 -110.159 -34.8158 -141.052 92.3873 -70.7286 -149.748 -73.3001 9.99283 -0.400859 4.54842 0.234793 -11.1824 97.8989 3.12785 34.0879 71.9465 -47.1036 33.5342 -93.7638 -0.877148 -10.5787 17.9708 0.635647 -4.32006 -143.836 35.9391 -8.01876 162.477 30.9258 -2.22572 -7.06062 1.7306 17.816 -122.868 -59.8427 6.52541 156.519 -37.1177 -6.34331 -28.3074 -4.16436 -20.112 60.625 -18.69 -27.7579 16.946 32.8237 -7.60404 
-5.6818846 0.0964461 -4.2728084 -97.5301 29.3779 2.59389 -123.418 -4.68697 -11.1937 -9.6138 -0.343014 8.95782 -11.2079 -3.66242 0.116209 -61.8132 85.551 102.514 -110.063 -34.7947 -140.836 92.7305 -71.0818 -149.77 -73.1747 9.95317 -0.280243 4.45189 0.292153 -11.5658 97.9175 3.15898 34.1215 72.0079 -47.4244 33.8884 -93.7768 -0.747542 -10.6379 17.999 0.651163 -4.31003 -143.656 36.724 -7.74752 162.602 31.7668 -2.22197 -7.3271 1.84175 18.463 -122.847 -60.3098 6.22061 156.442 -37.2166 -6.40198 -28.4384 -4.15761 -20.2578 61.0412 -18.7062 -27.3965 16.8686 32.5648 -7.68361 
